# xmcd CD database file
#
# Track frame offsets:
#	154
#	18012
#	35252
#	54205
#	72307
#	92042
#	109588
#	130331
#	154429
#	180352
#	198566
#	226733
#	249666
#	266070
#	293183
#
# Disc length: 4093 seconds
#
# Revision: 1
# Processed by: cddbd v1.5PL3 Copyright (c) Steve Scherf et al.
# Submitted via: CDex 1.50beta10
#
DISCID=c80ffb0f
DTITLE=Willie Mabon - Cold Chilly Woman
DYEAR=2003
DGENRE=Blues
TTITLE0='Round For You
TTITLE1=Cold Chilly Woman
TTITLE2=Michelle
TTITLE3=Guilty Blues
TTITLE4=Why Did It Happen To Me
TTITLE5=Baby, Why Don't You Write To Me
TTITLE6=Lucinda
TTITLE7=Mary-Ann
TTITLE8=Blue Piano In Bordeaux
TTITLE9=Michelle
TTITLE10=Shakin' The Boogie
TTITLE11=Why Did It Happen To Me
TTITLE12=Sad Feeling
TTITLE13=Mabon's Best
TTITLE14=You Rascal You
EXTD=YEAR: 2003
EXTT0=
EXTT1=
EXTT2=
EXTT3=
EXTT4=
EXTT5=
EXTT6=
EXTT7=
EXTT8=
EXTT9=
EXTT10=
EXTT11=
EXTT12=
EXTT13=
EXTT14=
PLAYORDER=
